<svg width="821" height="210" viewBox="0 0 821 210" fill="none" xmlns="http://www.w3.org/2000/svg">
<path d="M264 113.4V174H245.8V30.8H305C320.067 30.8 331.4 34.9333 339 43.2C345.667 50.4 349 60.2667 349 72.8C349 85.4667 344.933 95.5333 336.8 103C329.333 109.933 320.067 113.4 309 113.4H264ZM264 97.2H302.2C310.867 97.2 317.667 95 322.6 90.6C327.533 86.2 330 80 330 72C330 64.1333 327.533 58 322.6 53.6C317.667 49.2 310.867 47 302.2 47H264V97.2Z" fill="black"/>
<path d="M393.055 30.8V157.8H463.655V174H374.855V30.8H393.055Z" fill="black"/>
<path d="M561.434 131H506.234L491.034 174H471.634L522.634 30.8H546.234L596.434 174H576.234L561.434 131ZM556.234 115.6L534.234 50.6L510.834 115.6H556.234Z" fill="black"/>
<path d="M675.289 117.8V174H657.089V117.8L601.889 30.8H624.289L666.489 100.6L707.289 30.8H729.089L675.289 117.8Z" fill="black"/>
<path d="M107.496 0.000335693C102.242 1.04917 56.0073 6.71245 50.2515 9.40331C48.9251 11.8878 46.1528 19.6395 45.2737 20.866C41.558 21.6139 26.5006 24.2933 25.5541 24.8063C25.0241 26.2964 21.5642 32.6582 20.7678 33.4033C17.5789 34.1484 2.71303 36.7267 0.856707 37.9704C-0.203174 43.931 -4.24971 103.574 22.2994 142.567C48.8485 181.561 95.2826 207.516 107.496 210H107.591C119.805 207.516 166.143 181.561 192.692 142.567C219.238 103.571 215.297 43.931 214.231 37.9704C212.371 36.7267 197.502 34.1484 194.319 33.4033C193.523 32.6582 190.066 26.2964 189.533 24.8063C188.59 24.2933 173.535 21.6111 169.814 20.866C168.934 19.6395 166.165 11.8878 164.836 9.40331C159.098 6.72104 112.823 1.06923 107.496 0.000335693ZM107.496 15.2242C112.048 16.1355 151.603 21.0809 156.508 23.3734C157.638 25.4969 159.972 32.0858 160.72 33.1346C163.896 33.7708 176.854 36.0096 177.663 36.4481C178.116 37.7204 181 43.2447 181.684 43.8809C184.407 44.5171 197.136 46.6713 198.723 47.7316C199.633 52.8268 203.036 103.777 180.343 137.105C157.651 170.435 118.031 192.656 107.591 194.776H107.496C97.0562 192.656 57.4363 170.432 34.7438 137.105C12.0544 103.777 15.4576 52.8268 16.3644 47.7316C17.9542 46.6685 30.6804 44.5171 33.4036 43.8809C34.0867 43.2447 36.9708 37.7204 37.4241 36.4481C38.2328 36.0096 51.0954 33.7708 54.272 33.1346C55.0224 32.0858 57.4462 25.4969 58.5796 23.3734C63.4961 21.0723 103.005 16.1183 107.496 15.2242Z" fill="black"/>
<path d="M114.771 31.5225C113.279 31.6601 113.057 32.6366 113.048 33.0449C112.742 80.7469 112.887 131.352 112.474 180.358C112.81 181.909 115.453 179.526 116.973 178.746C136.314 168.8 196.64 114.143 161.964 94.5673C188.516 78.3246 183.784 62.8235 172.015 54.3583C147.681 36.8462 119.917 32.4983 116.685 31.7017C115.878 31.5025 115.268 31.4767 114.771 31.5225ZM130.949 51.1345C131.325 50.9425 146.923 56.3521 155.455 61.7912C165.236 68.0269 161.924 74.0197 156.22 77.6419C153.123 79.6164 133.958 92.4932 130.757 93.224C130.687 90.7394 130.673 62.7232 130.949 51.1345ZM145.212 105.672C147.349 105.733 149.379 106.372 150.86 107.821C152.183 109.005 158.016 114.887 145.595 131.731C140.969 139.371 131.27 148.953 130.183 149.91C130.051 149.945 129.997 149.755 129.896 149.821C129.997 144.345 129.84 117.834 130.183 110.418C130.87 110.083 138.801 105.487 145.212 105.672Z" fill="black"/>
<path d="M48.8355 48.6994C47.2457 49.3355 33.7031 57.4024 32.3399 58.6748C31.9631 69.9196 35.1857 100.258 47.0557 123.938C48.5567 126.932 50.1864 129.74 51.9508 132.282C55.3357 137.75 55.5256 137.317 59.4649 132.082C62.1943 128.629 66.1305 123.508 67.1169 122.453C68.477 126.697 77.2715 153.17 89.6409 169.169C95.1241 176.267 103.545 182.973 103.511 180.211C103.174 153.179 102.347 36.1678 103.254 31.3993C99.6056 31.3191 87.6375 32.7777 85.2697 33.9268C85.0736 38.2053 86.9146 118.438 85.7812 127.563C77.3971 108.454 74.5361 58.03 76.1933 37.2252C71.6566 38.0735 60.5922 42.2258 59.0054 43.7131C56.9653 47.533 59.7498 89.4291 62.6476 103.491C61.6582 104.95 58.8063 108.91 58.353 109.546C52.6124 99.8859 47.1262 70.0199 48.8355 48.6994Z" fill="black"/>
<path d="M767.4 142.25V174H762.85V142.25H751.05V138.2H779.1V142.25H767.4Z" fill="black"/>
<path d="M802.98 174H798.18L787.98 144V174H783.68V138.2H789.98L800.63 169.35L811.03 138.2H817.38V174H813.03V144L802.98 174Z" fill="black"/>
<path d="M821 71L753.5 109.971V32.0289L821 71Z" fill="black"/>
</svg>
